<svg width="30" height="30" viewBox="0 0 30 30" fill="none" xmlns="http://www.w3.org/2000/svg">
<path fill-rule="evenodd" clip-rule="evenodd" d="M18.476 24.6256C21.3632 20.9439 25 15.5949 25 12.0109C25 6.0678 20.5228 1.25 15 1.25C9.47715 1.25 5 6.0678 5 12.0109C5 15.5949 8.63682 20.9439 11.524 24.6256C13.0303 26.5464 13.7835 27.5068 15 27.5068C16.2165 27.5068 16.9697 26.5464 18.476 24.6256ZM15 16.25C12.9289 16.25 11.25 14.5711 11.25 12.5C11.25 10.4289 12.9289 8.75 15 8.75C17.0711 8.75 18.75 10.4289 18.75 12.5C18.75 14.5711 17.0711 16.25 15 16.25Z" fill="black"/>
</svg>
