<svg width="30" height="30" viewBox="0 0 30 30" fill="none" xmlns="http://www.w3.org/2000/svg">
<path d="M16.7624 24.3762C16.2446 24.3762 15.8249 24.7959 15.8249 25.3137C15.8249 25.8314 16.2446 26.2512 16.7624 26.2512H24.2624C24.7801 26.2512 25.1999 25.8314 25.1999 25.3137C25.1999 24.7959 24.7801 24.3762 24.2624 24.3762H16.7624Z" fill="black"/>
<path d="M17.755 5.71925L17.8675 5.78425C18.8402 6.34577 19.6513 6.81401 20.2452 7.27231C20.872 7.75605 21.3696 8.3113 21.5779 9.08903C21.7863 9.86676 21.6331 10.5964 21.3321 11.3287C21.1232 11.8371 20.8159 12.4083 20.4458 13.0599L19.6516 12.5879L19.6414 12.5819L10.9848 7.58398L10.1752 7.10684C10.5503 6.46798 10.8883 5.92231 11.221 5.49113C11.7048 4.86428 12.26 4.36674 13.0378 4.15835C13.8155 3.94996 14.5451 4.10321 15.2775 4.40421C15.9713 4.68938 16.7824 5.15768 17.755 5.71925Z" fill="black"/>
<path d="M9.23592 8.72967L4.88846 16.2596C4.51623 16.9031 4.2219 17.4119 4.11286 17.9906C4.00381 18.5694 4.0928 19.1504 4.20534 19.8853L4.23566 20.0839C4.44339 21.4481 4.61461 22.5725 4.87286 23.4252C5.14295 24.317 5.55815 25.0889 6.37474 25.5604C7.19133 26.0319 8.06741 26.0055 8.97477 25.7935C9.84235 25.5908 10.9018 25.1768 12.1871 24.6746L12.3742 24.6016C13.0669 24.3316 13.6146 24.1182 14.0613 23.7344C14.508 23.3505 14.8015 22.8412 15.1726 22.1971L19.5098 14.6848L18.6987 14.2027L10.0363 9.20147L9.23592 8.72967Z" fill="black"/>
</svg>
