<svg width="36" height="42" viewBox="0 0 36 42" fill="none" xmlns="http://www.w3.org/2000/svg">
<path fill-rule="evenodd" clip-rule="evenodd" d="M4.99669 13.1907C4.15436 6.45206 9.40872 0.5 16.1998 0.5H19.6057C26.404 0.5 31.6639 6.45835 30.8207 13.2042L30.6914 14.238C30.4414 16.2382 31.1686 18.2367 32.6457 19.6084L32.7335 19.6899C35.9601 22.6864 36.5863 27.5598 34.222 31.2747C32.6768 33.7026 30.0862 35.247 27.2448 35.4716L26.8623 36.1272C24.8367 39.5997 21.6807 41.5 18.3667 41.5C15.0526 41.5 11.8966 39.5997 9.871 36.1272L9.49445 35.4817C6.11184 35.2712 3.08171 33.2565 1.58942 30.18L1.38271 29.7539C-0.310587 26.263 0.481605 22.0751 3.33297 19.4439C4.70899 18.1741 5.38764 16.3183 5.1554 14.4604L4.99669 13.1907ZM13.0401 35.5C14.5588 37.5754 16.5244 38.5 18.3667 38.5C20.2089 38.5 22.1745 37.5754 23.6932 35.5H13.0401Z" fill="#A2A2A2"/>
<path fill-rule="evenodd" clip-rule="evenodd" d="M4.99669 13.1907C4.15436 6.45206 9.40872 0.5 16.1998 0.5H19.6057C26.404 0.5 31.6639 6.45835 30.8207 13.2042L30.6914 14.238C30.4414 16.2382 31.1686 18.2367 32.6457 19.6084L32.7335 19.6899C35.9601 22.6864 36.5863 27.5598 34.222 31.2747C32.6768 33.7026 30.0862 35.247 27.2448 35.4716L26.8623 36.1272C24.8367 39.5997 21.6807 41.5 18.3667 41.5C15.0526 41.5 11.8966 39.5997 9.871 36.1272L9.49445 35.4817C6.11184 35.2712 3.08171 33.2565 1.58942 30.18L1.38271 29.7539C-0.310587 26.263 0.481605 22.0751 3.33297 19.4439C4.70899 18.1741 5.38764 16.3183 5.1554 14.4604L4.99669 13.1907ZM13.0401 35.5C14.5588 37.5754 16.5244 38.5 18.3667 38.5C20.2089 38.5 22.1745 37.5754 23.6932 35.5H13.0401Z" fill="black" fill-opacity="0.2"/>
</svg>
