<svg width="231" height="72" viewBox="0 0 231 72" fill="none" xmlns="http://www.w3.org/2000/svg">
<path d="M0 36C0 24.8174 0 19.2261 1.82689 14.8156C4.26275 8.93492 8.93492 4.26275 14.8156 1.82689C19.2261 0 24.8174 0 36 0H195C206.183 0 211.774 0 216.184 1.82689C222.065 4.26275 226.737 8.93492 229.173 14.8156C231 19.2261 231 24.8174 231 36V36C231 47.1826 231 52.7739 229.173 57.1844C226.737 63.0651 222.065 67.7373 216.184 70.1731C211.774 72 206.183 72 195 72H36C24.8174 72 19.2261 72 14.8156 70.1731C8.93492 67.7373 4.26275 63.0651 1.82689 57.1844C0 52.7739 0 47.1826 0 36V36Z" fill="white"/>
</svg>
