<svg width="42" height="46" viewBox="0 0 42 46" fill="none" xmlns="http://www.w3.org/2000/svg">
<path d="M16.5 23C16.5 20.5147 18.5147 18.5 21 18.5C23.4853 18.5 25.5 20.5147 25.5 23C25.5 25.4853 23.4853 27.5 21 27.5C18.5147 27.5 16.5 25.4853 16.5 23Z" fill="#A2A2A2"/>
<path d="M16.5 23C16.5 20.5147 18.5147 18.5 21 18.5C23.4853 18.5 25.5 20.5147 25.5 23C25.5 25.4853 23.4853 27.5 21 27.5C18.5147 27.5 16.5 25.4853 16.5 23Z" fill="black" fill-opacity="0.2"/>
<path fill-rule="evenodd" clip-rule="evenodd" d="M14.1705 5.4646C16.1313 -1.40617 25.8685 -1.40617 27.8293 5.46459C28.4369 7.5934 30.6239 8.85612 32.7713 8.31786C39.702 6.5806 44.5706 15.0133 39.6007 20.1468C38.0609 21.7373 38.0609 24.2628 39.6007 25.8533C44.5706 30.9868 39.702 39.4195 32.7713 37.6822C30.6239 37.144 28.4369 38.4067 27.8293 40.5355C25.8685 47.4062 16.1313 47.4062 14.1705 40.5355C13.5629 38.4067 11.3758 37.144 9.22847 37.6822C2.2978 39.4195 -2.5708 30.9868 2.39904 25.8533C3.93888 24.2628 3.93888 21.7373 2.39904 20.1468C-2.5708 15.0133 2.2978 6.5806 9.22847 8.31786C11.3758 8.85612 13.5629 7.5934 14.1705 5.4646ZM21 15.5C16.8579 15.5 13.5 18.8579 13.5 23C13.5 27.1422 16.8579 30.5 21 30.5C25.1421 30.5 28.5 27.1422 28.5 23C28.5 18.8579 25.1421 15.5 21 15.5Z" fill="#A2A2A2"/>
<path fill-rule="evenodd" clip-rule="evenodd" d="M14.1705 5.4646C16.1313 -1.40617 25.8685 -1.40617 27.8293 5.46459C28.4369 7.5934 30.6239 8.85612 32.7713 8.31786C39.702 6.5806 44.5706 15.0133 39.6007 20.1468C38.0609 21.7373 38.0609 24.2628 39.6007 25.8533C44.5706 30.9868 39.702 39.4195 32.7713 37.6822C30.6239 37.144 28.4369 38.4067 27.8293 40.5355C25.8685 47.4062 16.1313 47.4062 14.1705 40.5355C13.5629 38.4067 11.3758 37.144 9.22847 37.6822C2.2978 39.4195 -2.5708 30.9868 2.39904 25.8533C3.93888 24.2628 3.93888 21.7373 2.39904 20.1468C-2.5708 15.0133 2.2978 6.5806 9.22847 8.31786C11.3758 8.85612 13.5629 7.5934 14.1705 5.4646ZM21 15.5C16.8579 15.5 13.5 18.8579 13.5 23C13.5 27.1422 16.8579 30.5 21 30.5C25.1421 30.5 28.5 27.1422 28.5 23C28.5 18.8579 25.1421 15.5 21 15.5Z" fill="black" fill-opacity="0.2"/>
</svg>
