<svg width="36" height="36" viewBox="0 0 36 36" fill="none" xmlns="http://www.w3.org/2000/svg">
<path fill-rule="evenodd" clip-rule="evenodd" d="M36 18C36 10.5005 36 6.7508 34.0902 4.12215C33.4734 3.2732 32.7268 2.52663 31.8779 1.90983C29.2492 0 25.4995 0 18 0C16.3221 0 14.8319 0 13.5 0.0213891L13.5 0.16164C13.5001 1.86567 13.5002 2.90364 13.3584 3.799C12.579 8.71976 8.71976 12.579 3.799 13.3584C2.90364 13.5002 1.86567 13.5001 0.16164 13.5L0.021389 13.5C0 14.8319 0 16.3221 0 18C0 25.4995 0 29.2492 1.90983 31.8779C2.52662 32.7268 3.2732 33.4734 4.12215 34.0902C6.7508 36 10.5005 36 18 36C25.4995 36 29.2492 36 31.8779 34.0902C32.7268 33.4734 33.4734 32.7268 34.0902 31.8779C36 29.2492 36 25.4995 36 18ZM18.5 12C18.5 11.1716 19.1716 10.5 20 10.5C20.8284 10.5 21.5 11.1716 21.5 12V25.8724C21.5284 25.8503 21.5574 25.8273 21.587 25.8035C22.2323 25.2853 22.9993 24.5146 24.1389 23.3648L26.9346 20.5441C27.5178 19.9557 28.4675 19.9515 29.0559 20.5346C29.6443 21.1178 29.6485 22.0675 29.0654 22.6559L26.2087 25.5382C25.146 26.6105 24.2595 27.5049 23.4655 28.1426C22.6327 28.8115 21.7574 29.3202 20.691 29.4561C20.2322 29.5146 19.7678 29.5146 19.309 29.4561C18.2426 29.3202 17.3673 28.8115 16.5345 28.1426C15.7405 27.5049 14.8541 26.6106 13.7914 25.5383L10.9346 22.6559C10.3514 22.0675 10.3557 21.1178 10.9441 20.5346C11.5325 19.9515 12.4822 19.9557 13.0654 20.5441L15.8611 23.3648C17.0007 24.5146 17.7677 25.2853 18.413 25.8035C18.4426 25.8273 18.4716 25.8503 18.5 25.8724V12Z" fill="#A2A2A2"/>
<path fill-rule="evenodd" clip-rule="evenodd" d="M36 18C36 10.5005 36 6.7508 34.0902 4.12215C33.4734 3.2732 32.7268 2.52663 31.8779 1.90983C29.2492 0 25.4995 0 18 0C16.3221 0 14.8319 0 13.5 0.0213891L13.5 0.16164C13.5001 1.86567 13.5002 2.90364 13.3584 3.799C12.579 8.71976 8.71976 12.579 3.799 13.3584C2.90364 13.5002 1.86567 13.5001 0.16164 13.5L0.021389 13.5C0 14.8319 0 16.3221 0 18C0 25.4995 0 29.2492 1.90983 31.8779C2.52662 32.7268 3.2732 33.4734 4.12215 34.0902C6.7508 36 10.5005 36 18 36C25.4995 36 29.2492 36 31.8779 34.0902C32.7268 33.4734 33.4734 32.7268 34.0902 31.8779C36 29.2492 36 25.4995 36 18ZM18.5 12C18.5 11.1716 19.1716 10.5 20 10.5C20.8284 10.5 21.5 11.1716 21.5 12V25.8724C21.5284 25.8503 21.5574 25.8273 21.587 25.8035C22.2323 25.2853 22.9993 24.5146 24.1389 23.3648L26.9346 20.5441C27.5178 19.9557 28.4675 19.9515 29.0559 20.5346C29.6443 21.1178 29.6485 22.0675 29.0654 22.6559L26.2087 25.5382C25.146 26.6105 24.2595 27.5049 23.4655 28.1426C22.6327 28.8115 21.7574 29.3202 20.691 29.4561C20.2322 29.5146 19.7678 29.5146 19.309 29.4561C18.2426 29.3202 17.3673 28.8115 16.5345 28.1426C15.7405 27.5049 14.8541 26.6106 13.7914 25.5383L10.9346 22.6559C10.3514 22.0675 10.3557 21.1178 10.9441 20.5346C11.5325 19.9515 12.4822 19.9557 13.0654 20.5441L15.8611 23.3648C17.0007 24.5146 17.7677 25.2853 18.413 25.8035C18.4426 25.8273 18.4716 25.8503 18.5 25.8724V12Z" fill="black" fill-opacity="0.2"/>
<path d="M10.3954 3.32969C10.493 2.71291 10.4997 1.95135 10.5 0.130673C7.62075 0.319488 5.67567 0.781133 4.12215 1.90983C3.2732 2.52663 2.52662 3.2732 1.90983 4.12215C0.781132 5.67567 0.319489 7.62075 0.130672 10.5C1.95135 10.4997 2.71291 10.493 3.32969 10.3954C6.96678 9.81929 9.81929 6.96678 10.3954 3.32969Z" fill="#A2A2A2"/>
<path d="M10.3954 3.32969C10.493 2.71291 10.4997 1.95135 10.5 0.130673C7.62075 0.319488 5.67567 0.781133 4.12215 1.90983C3.2732 2.52663 2.52662 3.2732 1.90983 4.12215C0.781132 5.67567 0.319489 7.62075 0.130672 10.5C1.95135 10.4997 2.71291 10.493 3.32969 10.3954C6.96678 9.81929 9.81929 6.96678 10.3954 3.32969Z" fill="black" fill-opacity="0.2"/>
</svg>
