<svg width="30" height="30" viewBox="0 0 30 30" fill="none" xmlns="http://www.w3.org/2000/svg">
<path d="M18.3853 3.81897C19.1536 3.43705 20.0565 3.32342 20.9502 3.5629C22.8952 4.08404 24.0494 6.08318 23.5282 8.02811L20.5626 19.096C20.0415 21.0409 18.0423 22.1951 16.0974 21.674C14.1525 21.1529 12.9983 19.1537 13.5194 17.2088L14.7056 12.7816C14.8397 12.2815 14.5429 11.7674 14.0427 11.6334C13.5426 11.4994 13.0285 11.7962 12.8945 12.2963L11.7083 16.7235C10.9191 19.6687 12.6669 22.696 15.6121 23.4851C18.5573 24.2743 21.5846 22.5265 22.3737 19.5813L25.3393 8.5134C26.1285 5.56822 24.3807 2.54094 21.4355 1.75178C20.0837 1.38957 18.7124 1.56249 17.5506 2.13998C16.8383 2.49409 16.2033 3.00088 15.6976 3.6313C15.3736 4.03519 15.4384 4.62523 15.8423 4.9492C16.2462 5.27317 16.8363 5.20837 17.1602 4.80448C17.4934 4.38906 17.9132 4.05365 18.3853 3.81897Z" fill="black"/>
<path d="M10.2785 11.5954C10.7996 9.65045 12.7988 8.49624 14.7437 9.01738C16.6886 9.53852 17.8428 11.5377 17.3217 13.4826L16.1354 17.9098C16.0014 18.4099 16.2982 18.9239 16.7984 19.058C17.2985 19.192 17.8125 18.8952 17.9466 18.395L19.1328 13.9679C19.922 11.0227 18.1742 7.99543 15.229 7.20627C12.2838 6.41711 9.25654 8.16491 8.46738 11.1101L5.50174 22.178C4.71259 25.1232 6.46038 28.1504 9.40556 28.9396C10.7574 29.3018 12.1287 29.1289 13.2905 28.5514C14.0028 28.1973 14.6378 27.6905 15.1435 27.0601C15.4675 26.6562 15.4027 26.0662 14.9988 25.7422C14.5949 25.4182 14.0048 25.483 13.6809 25.8869C13.3477 26.3023 12.9279 26.6377 12.4558 26.8724C11.6875 27.2543 10.7846 27.368 9.89085 27.1285C7.94592 26.6073 6.79171 24.6082 7.31285 22.6633L10.2785 11.5954Z" fill="black"/>
</svg>
