<svg width="30" height="30" viewBox="0 0 30 30" fill="none" xmlns="http://www.w3.org/2000/svg">
<path d="M10.3125 11.25C10.3125 9.35152 11.8515 7.8125 13.75 7.8125C15.6485 7.8125 17.1875 9.35152 17.1875 11.25C17.1875 13.1485 15.6485 14.6875 13.75 14.6875C11.8515 14.6875 10.3125 13.1485 10.3125 11.25Z" fill="black"/>
<path fill-rule="evenodd" clip-rule="evenodd" d="M14.9434 2.8125H15.0566C17.3522 2.81249 19.1517 2.81248 20.5794 2.96716C22.0363 3.12501 23.2168 3.45291 24.2247 4.18519C24.8349 4.62851 25.3715 5.16511 25.8148 5.77529C26.5471 6.7832 26.875 7.96367 27.0328 9.4206C27.1875 10.8482 27.1875 12.6477 27.1875 14.9433V15.0075C27.1875 16.1754 27.1875 17.2103 27.1686 18.1257C27.1128 20.8183 26.9022 22.7281 25.8148 24.2247C25.3715 24.8349 24.8349 25.3715 24.2247 25.8148C23.2168 26.5471 22.0363 26.875 20.5794 27.0328C19.1518 27.1875 17.3523 27.1875 15.0567 27.1875H14.9434C12.6478 27.1875 10.8482 27.1875 9.4206 27.0328C7.96367 26.875 6.7832 26.5471 5.77529 25.8148C5.18726 25.3876 4.66756 24.8737 4.23382 24.2908C4.21749 24.2689 4.20128 24.2468 4.18519 24.2247C3.45291 23.2168 3.12501 22.0363 2.96716 20.5794C2.81248 19.1517 2.81249 17.3522 2.8125 15.0566V14.9434C2.81249 12.6478 2.81248 10.8483 2.96716 9.4206C3.12501 7.96367 3.45291 6.7832 4.18519 5.77529C4.62851 5.16511 5.16511 4.62851 5.77529 4.18519C6.7832 3.45291 7.96367 3.12501 9.4206 2.96716C10.8483 2.81248 12.6478 2.81249 14.9434 2.8125ZM9.62256 4.83125C8.32517 4.97181 7.5124 5.24074 6.87739 5.7021C6.42639 6.02977 6.02977 6.42639 5.7021 6.87739C5.24074 7.5124 4.97181 8.32517 4.83125 9.62256C4.68879 10.9375 4.6875 12.6355 4.6875 15C4.6875 17.3645 4.68879 19.0625 4.83125 20.3774C4.88153 20.8415 4.94822 21.2435 5.03426 21.5976C5.37847 20.9359 5.66376 20.4487 6.00179 20.0327C7.33294 18.3942 9.31711 17.4238 11.4277 17.379C12.2175 17.3622 13.0588 17.5305 14.4327 17.8055L14.5889 17.8367C14.804 17.4804 14.9939 17.1947 15.1922 16.9508C17.5813 14.0109 21.8422 13.4301 24.931 15.6233C25.0544 15.7108 25.1798 15.8094 25.3121 15.9216C25.3125 15.6257 25.3125 15.3187 25.3125 15C25.3125 12.6355 25.3112 10.9375 25.1688 9.62256C25.0282 8.32517 24.7593 7.5124 24.2979 6.87739C23.9702 6.42639 23.5736 6.02977 23.1226 5.7021C22.4876 5.24074 21.6748 4.97181 20.3774 4.83125C19.0625 4.68879 17.3645 4.6875 15 4.6875C12.6355 4.6875 10.9375 4.68879 9.62256 4.83125Z" fill="black"/>
</svg>
