<svg width="42" height="42" viewBox="0 0 42 42" fill="none" xmlns="http://www.w3.org/2000/svg">
<path d="M9.58733 5.93112C4.2537 9.80623 1.58689 11.7438 0.539474 14.6058C0.455452 14.8354 0.379877 15.068 0.312902 15.3031C-0.521989 18.2342 0.496644 21.3693 2.53391 27.6393C4.57118 33.9094 5.58981 37.0444 7.9881 38.925C8.18049 39.0758 8.37835 39.2196 8.58128 39.3559C9.43458 39.9293 10.3751 40.3093 11.5 40.5611V31.6393C11.5 26.3926 15.7533 22.1393 21 22.1393C26.2467 22.1393 30.5 26.3926 30.5 31.6393V40.5611C31.6249 40.3093 32.5654 39.9293 33.4187 39.3559C33.6217 39.2196 33.8195 39.0758 34.0119 38.925C36.4102 37.0444 37.4288 33.9094 39.4661 27.6393C41.5034 21.3693 42.522 18.2342 41.6871 15.3031C41.6201 15.068 41.5446 14.8354 41.4605 14.6058C40.4131 11.7438 37.7463 9.80623 32.4127 5.93114C27.0791 2.05603 24.4122 0.11845 21.3666 0.00672209C21.1223 -0.0022407 20.8777 -0.0022407 20.6334 0.00672209C17.5878 0.11845 14.921 2.05601 9.58733 5.93112Z" fill="black"/>
<path fill-rule="evenodd" clip-rule="evenodd" d="M27.5 40.9464V31.6393C27.5 28.0495 24.5898 25.1393 21 25.1393C17.4101 25.1393 14.5 28.0495 14.5 31.6393V40.9464C16.2459 41.0557 18.3583 41.0557 21 41.0557C23.6417 41.0557 25.7541 41.0557 27.5 40.9464ZM22.5 31.6393C22.5 30.8109 21.8284 30.1393 21 30.1393C20.1716 30.1393 19.5 30.8109 19.5 31.6393V35.6393C19.5 36.4677 20.1716 37.1393 21 37.1393C21.8284 37.1393 22.5 36.4677 22.5 35.6393V31.6393Z" fill="black"/>
</svg>
