<svg width="41" height="40" viewBox="0 0 41 40" fill="none" xmlns="http://www.w3.org/2000/svg">
<path d="M38 6C38 8.20914 36.2091 10 34 10C31.7909 10 30 8.20914 30 6C30 3.79086 31.7909 2 34 2C36.2091 2 38 3.79086 38 6Z" fill="#A2A2A2"/>
<path d="M38 6C38 8.20914 36.2091 10 34 10C31.7909 10 30 8.20914 30 6C30 3.79086 31.7909 2 34 2C36.2091 2 38 3.79086 38 6Z" fill="black" fill-opacity="0.2"/>
<path fill-rule="evenodd" clip-rule="evenodd" d="M34 12C35.4191 12 36.7231 11.5073 37.7504 10.6837C41.7263 18.2335 40.5392 27.7918 34.1888 34.1421C29.6455 38.6854 20.0109 42.6135 12.1912 37.7811C11.7561 37.5122 11.5385 37.3777 11.374 37.3126C11.0594 37.188 10.8209 37.152 10.4836 37.1781C10.3071 37.1917 10.1073 37.2435 9.70753 37.3471C7.19194 37.9991 5.93407 38.3251 5.02792 38.1407C3.45518 37.8207 2.22604 36.5915 1.90597 35.0188C1.72155 34.1126 2.04756 32.8548 2.69958 30.3392C2.80322 29.9394 2.85504 29.7394 2.86862 29.5624C2.8945 29.2251 2.85773 28.9838 2.73255 28.6695C2.66687 28.5046 2.5326 28.2885 2.26407 27.8564C-2.58489 20.0538 1.16778 10.5946 5.90456 5.85786C12.2383 -0.475883 21.7633 -1.67341 29.3038 2.26527C28.4877 3.29011 28 4.5881 28 6C28 9.31371 30.6863 12 34 12ZM14.1055 19.7156C14.1055 20.8201 13.21 21.7156 12.1055 21.7156C11.0009 21.7156 10.1055 20.8201 10.1055 19.7156C10.1055 18.611 11.0009 17.7156 12.1055 17.7156C13.21 17.7156 14.1055 18.611 14.1055 19.7156ZM22.1055 19.7156C22.1055 20.8201 21.21 21.7156 20.1055 21.7156C19.0009 21.7156 18.1055 20.8201 18.1055 19.7156C18.1055 18.611 19.0009 17.7156 20.1055 17.7156C21.21 17.7156 22.1055 18.611 22.1055 19.7156ZM28.1055 21.7156C29.21 21.7156 30.1055 20.8201 30.1055 19.7156C30.1055 18.611 29.21 17.7156 28.1055 17.7156C27.0009 17.7156 26.1055 18.611 26.1055 19.7156C26.1055 20.8201 27.0009 21.7156 28.1055 21.7156Z" fill="#A2A2A2"/>
<path fill-rule="evenodd" clip-rule="evenodd" d="M34 12C35.4191 12 36.7231 11.5073 37.7504 10.6837C41.7263 18.2335 40.5392 27.7918 34.1888 34.1421C29.6455 38.6854 20.0109 42.6135 12.1912 37.7811C11.7561 37.5122 11.5385 37.3777 11.374 37.3126C11.0594 37.188 10.8209 37.152 10.4836 37.1781C10.3071 37.1917 10.1073 37.2435 9.70753 37.3471C7.19194 37.9991 5.93407 38.3251 5.02792 38.1407C3.45518 37.8207 2.22604 36.5915 1.90597 35.0188C1.72155 34.1126 2.04756 32.8548 2.69958 30.3392C2.80322 29.9394 2.85504 29.7394 2.86862 29.5624C2.8945 29.2251 2.85773 28.9838 2.73255 28.6695C2.66687 28.5046 2.5326 28.2885 2.26407 27.8564C-2.58489 20.0538 1.16778 10.5946 5.90456 5.85786C12.2383 -0.475883 21.7633 -1.67341 29.3038 2.26527C28.4877 3.29011 28 4.5881 28 6C28 9.31371 30.6863 12 34 12ZM14.1055 19.7156C14.1055 20.8201 13.21 21.7156 12.1055 21.7156C11.0009 21.7156 10.1055 20.8201 10.1055 19.7156C10.1055 18.611 11.0009 17.7156 12.1055 17.7156C13.21 17.7156 14.1055 18.611 14.1055 19.7156ZM22.1055 19.7156C22.1055 20.8201 21.21 21.7156 20.1055 21.7156C19.0009 21.7156 18.1055 20.8201 18.1055 19.7156C18.1055 18.611 19.0009 17.7156 20.1055 17.7156C21.21 17.7156 22.1055 18.611 22.1055 19.7156ZM28.1055 21.7156C29.21 21.7156 30.1055 20.8201 30.1055 19.7156C30.1055 18.611 29.21 17.7156 28.1055 17.7156C27.0009 17.7156 26.1055 18.611 26.1055 19.7156C26.1055 20.8201 27.0009 21.7156 28.1055 21.7156Z" fill="black" fill-opacity="0.2"/>
</svg>
